<svg width="40" height="34" viewBox="0 0 40 34" fill="none" xmlns="http://www.w3.org/2000/svg">
<g clip-path="url(#clip0_1_51)">
<rect x="1" y="8" width="14" height="6" rx="3" fill="#403829" stroke="#FFD068" stroke-width="2"/>
<rect x="25" y="1" width="14" height="6" rx="3" fill="#403829" stroke="#FFD068" stroke-width="2"/>
<rect x="25" y="14" width="14" height="6" rx="3" fill="#403829" stroke="#FFD068" stroke-width="2"/>
<rect x="25" y="27" width="14" height="6" rx="3" fill="#403829" stroke="#FFD068" stroke-width="2"/>
<path d="M14 11H16.7391C18.396 11 19.7391 9.65685 19.7391 8V7C19.7391 5.34315 21.0823 4 22.7391 4H26" stroke="#FFD068" stroke-width="2"/>
<path d="M14 11H16.7391C18.396 11 19.7391 12.3431 19.7391 14V14C19.7391 15.6569 21.0823 17 22.7391 17H26" stroke="#FFD068" stroke-width="2"/>
<path d="M14 11H16.7391C18.396 11 19.7391 12.3431 19.7391 14V27C19.7391 28.6569 21.0823 30 22.7391 30H26" stroke="#FFD068" stroke-width="2"/>
</g>
<defs>
<clipPath id="clip0_1_51">
<rect width="40" height="34" fill="white"/>
</clipPath>
</defs>
</svg>
