<svg width="186" height="186" viewBox="0 0 186 186" fill="none" xmlns="http://www.w3.org/2000/svg">
<g clip-path="url(#clip0_1_28)">
<path d="M42.6141 185C31.7815 185 23 176.218 23 165.386V19.6141C23 8.78153 31.7815 0 42.6141 0V0C53.4467 0 62.2282 8.78154 62.2282 19.6141V76.3306H124.5V19.5688C124.5 8.76125 133.261 0 144.069 0V0C154.876 0 163.638 8.76125 163.638 19.5688V165.431C163.638 176.239 154.876 185 144.069 185V185C133.261 185 124.5 176.239 124.5 165.431V108.579H62.2282V165.386C62.2282 176.218 53.4467 185 42.6141 185V185Z" fill="white"/>
</g>
<defs>
<clipPath id="clip0_1_28">
<rect width="185" height="185" fill="white" transform="translate(0.5 0.5)"/>
</clipPath>
</defs>
</svg>
